<?xml version="1.0" encoding="UTF-8" standalone="no"?>
<svg
   version="1.1"
   id="Layer_1"
   x="0px"
   y="0px"
   viewBox="0 0 311.00036 160.00599"
   xml:space="preserve"
   width="311.00037"
   height="160.006"
   xmlns="http://www.w3.org/2000/svg"
   xmlns:svg="http://www.w3.org/2000/svg"><defs
     id="defs2" /><g
     id="g2"
     style="fill:#f1f3ff;fill-opacity:1"><path
       d="m 277.942,46.911 a 3.098,3.098 0 0 0 3.097,-3.1 c 0,-1.712 -1.386,-3.1 -3.097,-3.1 a 3.099,3.099 0 0 0 -3.097,3.1 3.091,3.091 0 0 0 3.097,3.1 z m -23.725,25.761 c -12.164,9.838 -9.379,32.019 -9.379,32.019 h 17.803 c 0,0 -8.182,-9.185 -7.656,-31.637 a 0.47,0.47 0 0 0 -0.768,-0.382 z"
       fill="currentColor"
       id="path1"
       style="fill:#f1f3ff;fill-opacity:1" /><path
       d="M 310.965,10.63 A 3.973,3.973 0 0 0 307.03,8.236 l -5.593,0.11 c -2.733,0.052 -5.351,-1 -7.339,-2.88 C 291.539,3.036 286.997,0 280.283,0 272.176,0 265.19,5.234 258.048,24.39 246.075,56.5 232.022,51.643 232.56,78.27 c 0.04,1.915 2.629,2.488 3.478,0.776 2.242,-4.512 7.229,-9.139 14.509,-14.084 3.329,-2.261 6.934,-4.43 8.945,-12.608 3.542,-14.453 10.101,-17.31 14.891,-17.31 3.386,0 7.234,1.821 11.169,6.68 1.168,1.44 2.976,2.209 4.825,2.116 l 1.867,-0.092 a 1.645,1.645 0 0 1 1.49,0.798 0.464,0.464 0 0 1 -0.127,0.619 c -9.563,6.911 -18.843,24.141 -17.976,41.689 0.121,2.463 3.247,3.435 4.761,1.492 2.907,-3.725 7.72,-8.508 12.817,-11.163 a 0.473,0.473 0 0 1 0.681,0.446 c -0.797,18.259 -7.615,27.067 -7.615,27.067 h 16.231 c 0,0 8.332,-18.357 -0.769,-42.128 -9.1,-23.771 -10.002,-49.641 8.922,-51.307 a 0.469,0.469 0 0 0 0.306,-0.63 z m -24.511,4.379 a 3.098,3.098 0 0 1 -3.097,-3.1 3.098,3.098 0 1 1 6.194,0 c 0,1.712 -1.387,3.1 -3.097,3.1 z M 7.616,86.16 h 6.564 c 12.013,0 19.496,-4.465 19.496,-13.794 0,-9.197 -7.154,-13.667 -19.496,-13.667 H 0 v 45.992 h 7.616 z m 0,-23.98 h 6.171 c 8.009,0 11.62,4.072 11.62,10.185 0,6.374 -3.542,10.313 -11.62,10.313 H 7.616 Z m 42.101,8.676 c -8.078,0 -16.018,6.24 -16.018,17.149 0,11.301 7.876,17.345 16.936,17.345 7.749,0 13.389,-4.141 14.77,-10.775 H 61.4 c -1.115,4.401 -4.657,7.293 -9.782,7.293 -6.299,0 -10.043,-5.454 -10.043,-13.8 V 88.005 H 65.468 V 86.888 C 65.474,76.57 58.188,70.856 49.716,70.856 Z m -8.136,13.99 c 0.393,-7.16 3.218,-10.97 8.141,-10.97 5.316,0 7.68,4.007 7.813,10.97 H 41.58 Z m 46.261,-13.99 c -5.12,0 -8.991,2.759 -10.829,6.9 v -6.177 h -6.957 v 33.117 h 7.09 V 89.057 c 0,-9.988 4.265,-14.586 8.795,-14.586 4.004,0 6.5,2.498 6.5,9 v 21.22 h 7.09 V 84.124 C 99.526,74.204 94.539,70.856 87.841,70.856 Z m 33.988,27.658 -7.42,-0.394 c -2.496,-0.133 -3.282,-0.723 -3.282,-1.972 0,-1.706 2.167,-3.221 5.906,-3.221 8.072,0 13.521,-4.662 13.521,-11.042 0,-3.285 -1.445,-5.91 -3.744,-7.756 1.577,0.394 3.282,0.59 4.79,0.59 h 3.282 v -3.152 h -9.32 c -3.022,0 -3.941,-0.133 -6.825,-0.462 h 0.064 c -0.589,-0.064 -1.179,-0.064 -1.774,-0.064 -7.419,0 -13.521,3.748 -13.521,10.839 0,4.73 2.889,8.41 7.546,10.052 -3.282,1.185 -5.576,3.285 -5.576,6.246 0,2.499 1.445,4.141 4.068,5.061 -4.068,0.983 -7.09,3.418 -7.09,6.963 0,5.385 6.038,7.49 15.555,7.49 7.813,0 15.758,-3.088 15.758,-10.514 0.011,-5.703 -4.322,-8.271 -11.938,-8.664 z M 110.672,81.89 c 0,-5.124 2.294,-8.016 6.368,-8.016 4.137,0 6.431,2.892 6.431,8.016 0,4.795 -2.034,8.213 -6.431,8.213 -4.265,0 -6.368,-3.482 -6.368,-8.213 z m 7.35,32.921 c -6.298,0 -9.257,-2.036 -9.257,-5.39 0,-2.892 2.167,-4.864 5.513,-5.454 l 7.026,0.329 c 4.397,0.197 6.564,1.973 6.564,4.864 0,3.679 -4.201,5.651 -9.846,5.651 z m 30.752,-9.461 c 4.923,0 8.535,-2.562 10.303,-6.24 v 5.586 h 6.893 V 71.579 h -7.09 v 16.888 c 0,9.07 -3.675,13.274 -8.268,13.274 -3.612,0 -6.501,-2.499 -6.501,-8.41 V 71.585 h -7.09 v 21.023 c 0,9.387 5.709,12.742 11.753,12.742 z m 31.191,-47.507 h -7.615 v 7.426 h 7.615 z M 179.7,71.579 h -7.09 v 33.117 h 7.09 z m 13.671,17.473 c 0,-9.989 4.264,-14.587 8.795,-14.587 4.004,0 6.5,2.499 6.5,9 v 21.22 h 7.09 V 84.118 c 0,-9.919 -4.986,-13.274 -11.684,-13.274 -5.119,0 -8.991,2.76 -10.828,6.9 v -6.177 h -6.957 v 33.118 h 7.09 V 89.052 Z M 7.616,116.836 h 21.397 v -3.487 H 0 v 45.997 h 7.616 v -21.029 h 19.3 v -3.482 h -19.3 z m 37.998,8.67 c -9.384,0 -17.133,6.767 -17.133,17.085 0,10.711 7.743,17.415 17.133,17.415 9.32,0 17.133,-6.767 17.133,-17.415 0,-10.451 -7.743,-17.085 -17.133,-17.085 z m 0,31.475 c -6.495,0 -9.257,-5.98 -9.257,-14.39 0,-8.276 2.756,-14.06 9.257,-14.06 6.437,0 9.257,5.784 9.257,14.06 0,8.473 -2.82,14.39 -9.257,14.39 z m 42.355,-13.864 c 0,9.069 -3.675,13.274 -8.269,13.274 -3.611,0 -6.5,-2.499 -6.5,-8.41 v -21.746 h -7.09 v 21.024 c 0,9.398 5.709,12.747 11.753,12.747 4.923,0 8.534,-2.562 10.302,-6.241 v 5.587 h 6.894 v -33.111 h -7.09 z m 30.064,-17.611 c -5.119,0 -8.991,2.759 -10.828,6.9 v -6.177 h -6.957 v 33.112 h 7.09 v -15.639 c 0,-9.989 4.264,-14.587 8.794,-14.587 4.005,0 6.501,2.499 6.501,9 v 21.22 h 7.09 v -20.567 c 0,-9.913 -4.992,-13.262 -11.69,-13.262 z m 40.784,6.044 c -2.167,-3.678 -5.906,-6.044 -11.095,-6.044 -8.268,0 -14.636,6.113 -14.636,17.085 0,11.365 6.431,17.415 14.769,17.415 5.12,0 8.991,-2.759 11.158,-6.634 v 5.98 h 6.957 v -47.305 h -7.153 z m -9.194,24.835 c -5.512,0 -8.731,-5.124 -8.731,-13.8 0,-8.606 3.086,-13.47 8.662,-13.47 5.183,0 9.453,5.454 9.453,13.47 0.006,8.15 -4.195,13.8 -9.384,13.8 z m 48.55,-18.328 c 0.063,-8.479 -5.316,-12.551 -13.914,-12.551 -7.287,0 -13.192,4.008 -13.915,10.382 h 6.761 c 0.393,-4.662 2.826,-7.426 7.154,-7.426 4.466,0 6.957,2.498 6.957,8.276 v 2.105 l -5.911,0.92 c -11.158,1.775 -16.082,4.667 -16.082,10.972 0,6.766 5.779,9.265 11.158,9.265 5.513,0 9.124,-2.695 11.158,-6.241 l 0.127,5.587 h 6.761 c -0.196,-3.875 -0.329,-5.517 -0.329,-6.57 z m -6.963,6.437 c 0,7.559 -3.808,11.828 -8.731,11.828 -3.282,0 -5.842,-2.106 -5.842,-6.044 0,-4.731 4.334,-7.294 14.573,-8.15 z m 20.987,-28.057 H 212 l -6.893,3.615 v 6.177 h -5.779 v 3.152 h 5.779 v 22.273 c 0,6.241 2.825,7.75 8.731,7.75 3.149,0 5.189,-0.063 6.697,-0.133 v -3.025 h -4.334 c -2.889,0 -4.068,-0.856 -4.068,-4.401 l 0.064,-22.47 h 8.338 v -3.152 h -8.338 z m 18.196,9.792 h -7.09 v 33.112 h 7.09 z m 0.265,-13.73 h -7.615 v 7.426 h 7.615 z m 21.045,13.007 c -9.384,0 -17.133,6.767 -17.133,17.085 0,10.711 7.743,17.415 17.133,17.415 9.32,0 17.133,-6.767 17.133,-17.415 0.005,-10.451 -7.743,-17.085 -17.133,-17.085 z m 0,31.475 c -6.501,0 -9.257,-5.98 -9.257,-14.39 0,-8.276 2.756,-14.06 9.257,-14.06 6.437,0 9.257,5.784 9.257,14.06 0,8.473 -2.82,14.39 -9.257,14.39 z m 39.281,-31.475 c -5.12,0 -8.991,2.759 -10.829,6.9 v -6.177 h -6.957 v 33.112 h 7.09 v -15.639 c 0,-9.989 4.265,-14.587 8.795,-14.587 4.004,0 6.495,2.499 6.495,9 v 21.22 h 7.09 v -20.567 c 0.005,-9.913 -4.987,-13.262 -11.684,-13.262 z"
       fill="currentColor"
       id="path2"
       style="fill:#f1f3ff;fill-opacity:1" /></g></svg>
